<svg id="brief_ico" data-name="brief_ico" xmlns="http://www.w3.org/2000/svg" viewBox="0 0 98.35 98.35"><title>brief_ico</title><circle cx="49.17" cy="49.17" r="49.17" style="fill:#ff5b00"/><path d="M222.58,183c0.32,0.12.66,0.21,1,.36a5.3,5.3,0,0,1,3.11,4.52,0.86,0.86,0,0,1-.11.54c-1,1.4-2,2.78-3.07,4.32v-6.44H183.34v53.07h40.09c0-.27,0-0.52,0-0.77q0-8.92,0-17.83a1.93,1.93,0,0,1,.4-1.23c0.93-1.26,1.83-2.54,2.82-3.93,0,0.29,0,.46,0,0.62q0,11,0,21.91a4.34,4.34,0,0,1-4.46,4.53H184.86a7.49,7.49,0,0,1-1.67-.16A4,4,0,0,1,180,238.3c0-4.45,0-8.9,0-13.35q0-18.18,0-36.37a7.88,7.88,0,0,1,.28-2.12,4.78,4.78,0,0,1,3.55-3.48h38.7Zm-18.39,53q3.63-1.79,7.25-3.59a1.28,1.28,0,0,0,.45-0.43q12-17.81,24-35.64a3.66,3.66,0,0,0,.7-1.93,4.09,4.09,0,0,1,1-2.51c0.17-.24.33-0.48,0.48-0.73a3.25,3.25,0,0,0-5.41-3.61c-0.43.6-.82,1.23-1.24,1.83a1,1,0,0,1-.42.36,4.75,4.75,0,0,0-2.45,2q-11.8,17.54-23.63,35.05a3.08,3.08,0,0,0-.53,1.62c-0.09,1.47-.22,2.94-0.32,4.41-0.07,1.08-.13,2.16-0.2,3.29A2.21,2.21,0,0,0,204.19,236Zm14.51-22.92a1.37,1.37,0,0,1,.11-1q5.33-8,10.71-15.93a1,1,0,0,1,1.2-.47,3.86,3.86,0,0,1,1.32.78,1.09,1.09,0,0,1,.11,1.61q-5.28,7.84-10.58,15.67a4.48,4.48,0,0,1-.9.77A2.48,2.48,0,0,1,218.7,213.05Zm-2.23-9.45a1.16,1.16,0,1,0,0-2.18H190.26a2.33,2.33,0,0,0-.8.14,1,1,0,0,0-.74.95,1,1,0,0,0,.73.95,2.85,2.85,0,0,0,.91.14h26.1Zm-25.88-13a4.1,4.1,0,0,0-1,.09,1,1,0,0,0-.88,1,1,1,0,0,0,.91,1,2.69,2.69,0,0,0,.69.09h26.1a2.48,2.48,0,0,0,.74-0.11,1,1,0,0,0,.83-1,1,1,0,0,0-.8-1,3.47,3.47,0,0,0-1-.12H190.59Zm25.86,7.59A1.33,1.33,0,0,0,218,197.1a1.3,1.3,0,0,0-1.53-1.09H190.21a2,2,0,0,0-.94.22,0.92,0.92,0,0,0,0,1.7,2.61,2.61,0,0,0,1.12.21c4.29,0,8.58,0,12.87,0h13.16Zm-14.74,8.7h-11a8.28,8.28,0,0,0-1,0,1.1,1.1,0,0,0-1,1,1.08,1.08,0,0,0,1,1,6.45,6.45,0,0,0,.87,0h18.88c1.32,0,2.64,0,4,0a1.1,1.1,0,1,0,0-2.15H201.71Zm-1.6,7.59H210.3a1.09,1.09,0,0,0,1.2-1.07,1.11,1.11,0,0,0-1.18-1.1H194.54c-1.53,0-3.07,0-4.6,0a1.1,1.1,0,0,0-1.22,1.23,1.13,1.13,0,0,0,1.31,1h10.07Zm-10.22,3.26a1,1,0,0,0-1.18,1.05,1,1,0,0,0,1.19,1.11H207a1.09,1.09,0,1,0,0-2.16H189.89Zm13,7.58a0.94,0.94,0,0,0,1.06-1.07,1,1,0,0,0-1-1.11H189.71a1.09,1.09,0,0,0,0,2.17h13.1Zm-0.94,5.43a0.9,0.9,0,0,0,.9-1.1,0.88,0.88,0,0,0-.85-1.08h-12.4a0.81,0.81,0,0,0-.56.21,1.41,1.41,0,0,0-.16,1.48,0.84,0.84,0,0,0,1,.48h12.11Zm-0.09,5.41a0.88,0.88,0,0,0,1-1,0.9,0.9,0,0,0-1-1.11h-12.1a0.91,0.91,0,0,0-1,1.11,0.89,0.89,0,0,0,1,1h12.1Z" transform="translate(-156.81 -164.18)" style="fill:#fefefe"/></svg>