<svg id="call_ico" data-name="call_ico" xmlns="http://www.w3.org/2000/svg" viewBox="0 0 98.35 98.35"><title>call_ico</title><circle cx="49.17" cy="49.17" r="49.17" style="fill:#ff5b00"/><path d="M190.36,58.19l0.47,0.08a6.16,6.16,0,0,1,1.52.52,7.91,7.91,0,0,1,1.62,1,3.39,3.39,0,0,1,.74.82,1.31,1.31,0,0,1,.21.69q0,3,.08,6,0.05,3.5.11,7a0.48,0.48,0,0,1-.12.35l-1,1.17a4.3,4.3,0,0,1-1.17.9,6.58,6.58,0,0,1-1.47.63,2.2,2.2,0,0,1-.72.1l-0.22,0a0.39,0.39,0,0,1-.3-0.32c0-.2-0.06-0.4-0.08-0.61,0-.54-0.08-1.09-0.1-1.63-0.05-1.29-.1-2.57-0.14-3.86,0-.47,0-0.94,0-1.41q-0.08-4.66-.16-9.31c0-.6,0-1.21,0-1.81,0-.05,0-0.11,0-0.18l0.3-.07M173.31,72.24c0,0.07,0,.14,0,0.21,0.05,1.21.09,2.41,0.15,3.62q0.06,1.2.16,2.39t0.26,2.68q0.14,1.28.31,2.56,0.25,1.81.58,3.6c0.32,1.71.69,3.41,1.15,5.09A49,49,0,0,0,177.78,98a34,34,0,0,0,1.72,3.67c0.48,0.87,1,1.7,1.57,2.53,1.35,2,2.73,4,4.19,6a71,71,0,0,0,5.42,6.44,44.12,44.12,0,0,0,4,3.75,29.26,29.26,0,0,0,4.41,3,18.42,18.42,0,0,0,5.61,2,4.62,4.62,0,0,0,.75.11h3.61l1-.25a42.38,42.38,0,0,0,5.9-2,28.09,28.09,0,0,0,4-2.07l0.14-.09-15.46-12.16-0.07,0a7.83,7.83,0,0,1-1.48.65,6.38,6.38,0,0,1-2.24.34,4.51,4.51,0,0,1-2.1-.58,4.89,4.89,0,0,1-1.61-1.48c-0.34-.48-0.67-1-1-1.47-1.08-1.75-2.08-3.55-3.06-5.35-2.66-4.88-5.2-9.83-7.7-14.79a3.41,3.41,0,0,1-.18-0.44,8.48,8.48,0,0,1-.43-2.11,6.58,6.58,0,0,1,.13-1.93A5.23,5.23,0,0,1,186.5,79a6.8,6.8,0,0,1,1.73-1.17l0.19-.09c0-.05,0-0.1,0-0.14l-0.07-2.53q0-1.17-.07-2.34l-0.15-4.94-0.06-2.2-0.14-4.91q0-1.12-.07-2.23c0-.07,0-0.14,0-0.21h-0.18c-0.62,0-1.24.1-1.86,0.2a20.45,20.45,0,0,0-3.6.88,14.85,14.85,0,0,0-4.6,2.49A11.1,11.1,0,0,0,174,67a12.34,12.34,0,0,0-.56,2.52c0,0.41-.07.83-0.11,1.24a1.52,1.52,0,0,1,0,.16m0,1.29c0,0.07,0,.14,0,0.21,0.05,1.21.09,2.41,0.15,3.62q0.06,1.2.16,2.39t0.26,2.68q0.14,1.28.31,2.56,0.25,1.81.58,3.6c0.32,1.71.69,3.41,1.15,5.09A49,49,0,0,0,177.78,98a34,34,0,0,0,1.72,3.67c0.48,0.87,1,1.7,1.57,2.53,1.35,2,2.73,4,4.19,6a71,71,0,0,0,5.42,6.44,44.12,44.12,0,0,0,4,3.75,29.26,29.26,0,0,0,4.41,3,18.42,18.42,0,0,0,5.61,2,4.62,4.62,0,0,0,.75.11h3.61l1-.25a42.38,42.38,0,0,0,5.9-2,28.09,28.09,0,0,0,4-2.07l0.14-.09-15.46-12.16-0.07,0a7.83,7.83,0,0,1-1.48.65,6.38,6.38,0,0,1-2.24.34,4.51,4.51,0,0,1-2.1-.58,4.89,4.89,0,0,1-1.61-1.48c-0.34-.48-0.67-1-1-1.47-1.08-1.75-2.08-3.55-3.06-5.35-2.66-4.88-5.2-9.83-7.7-14.79a3.41,3.41,0,0,1-.18-0.44,8.48,8.48,0,0,1-.43-2.11,6.58,6.58,0,0,1,.13-1.93A5.23,5.23,0,0,1,186.5,79a6.8,6.8,0,0,1,1.73-1.17l0.19-.09c0-.05,0-0.1,0-0.14l-0.07-2.53q0-1.17-.07-2.34l-0.15-4.94-0.06-2.2-0.14-4.91q0-1.12-.07-2.23c0-.07,0-0.14,0-0.21h-0.18c-0.62,0-1.24.1-1.86,0.2a20.45,20.45,0,0,0-3.6.88,14.85,14.85,0,0,0-4.6,2.49A11.1,11.1,0,0,0,174,67a12.34,12.34,0,0,0-.56,2.52c0,0.41-.07.83-0.11,1.24a1.52,1.52,0,0,1,0,.16v1.29Zm49.95,42.85c0-.11,0-0.21-0.07-0.32a3,3,0,0,0-1-1.54q-2.53-2-5.08-4c-1.3-1-2.62-2-3.93-3a6.29,6.29,0,0,0-1.21-.72,3.55,3.55,0,0,0-1.6-.38,0.51,0.51,0,0,0-.23.06l-4,2.14-0.1.07L221.78,120l0.06,0h0l0-.07c0.39-1.21.77-2.42,1.15-3.64,0.08-.26.14-0.54,0.21-0.81v-0.42ZM204.59,47.8l-1.37,4.49c11.84,3.33,21.16,9.94,27.63,20.32s8.25,21.66,6.14,33.67l4.66,0.76C247.31,78.82,228.52,53.45,204.59,47.8ZM226,104.54l4.47,0.8c4.74-21.9-9.64-42.07-28.7-46.66l-0.32,4.58C220.42,70.75,228.52,84.44,226,104.54ZM200.84,73.69c-0.15,1.42-.14,1.41,1.09,2,7.48,3.76,12,9.75,13.19,18a65.56,65.56,0,0,1,.19,8l4.24,1.35A28.48,28.48,0,0,0,201.2,70.17C201.07,71.4,201,72.55,200.84,73.69Z" transform="translate(-156.81 -39.32)" style="fill:#f6f6f6"/></svg>