<svg id="check_ico" data-name="check_ico" xmlns="http://www.w3.org/2000/svg" viewBox="0 0 98.35 98.35"><title>check_ico</title><circle cx="49.17" cy="49.17" r="49.17" style="fill:#ff5b00"/><path d="M614.11,235.39a4.49,4.49,0,0,1,1,1.21q2.71,3.67,5.4,7.35c0.09,0.13.17,0.27,0.26,0.41-3.45-.71-6.91-1.41-10.36-2.14a15.77,15.77,0,0,1-6.36-2.93,15.12,15.12,0,0,1-6.25-11.3,9.05,9.05,0,0,0-.07-2l6.94-33.4A0.64,0.64,0,0,0,605,192a10.58,10.58,0,0,1,.88-1.85c3-5,7.52-7.38,13.24-7.72a20.28,20.28,0,0,0,2.36,0l31.15,6.47a8.9,8.9,0,0,0,1.73.72c5.18,2.39,8.51,6.25,9.54,11.95-1.44,1-2.88,1.93-4.33,2.88-1.14.75-2.3,1.49-3.45,2.23l0.32-1.66a6.7,6.7,0,0,0-.69-4.56,9.07,9.07,0,0,0-6.58-4.62L622,190.24a11.54,11.54,0,0,0-2.57-.27c-3.39.06-7.21,2.06-8,6.54-0.42,2.52-1,5-1.54,7.52q-0.86,4.14-1.7,8.29c-2.28,1.51-4.55,3-6.85,4.52-0.42.27-.47,0.43-0.16,0.84,1.44,1.91,2.84,3.85,4.26,5.78,0.12,0.16.22,0.34,0.33,0.5a12.5,12.5,0,0,0-.53,3.5c0.22,3.2,2,5.32,4.75,6.75A17,17,0,0,0,614.11,235.39Zm41.39-13.17c-1,.68-2.07,1.39-3.1,2.08-0.78,3.77-1.45,7.56-2.38,11.29-0.72,2.88-2.9,4.43-5.7,5.14a10,10,0,0,1-4.6,0l-9.23-1.92a1.67,1.67,0,0,0-.39.14l-8.52,5.62,0.23,0.08q8.43,1.75,16.86,3.5A16.34,16.34,0,0,0,648.94,247a14.33,14.33,0,0,0,8.2-9.06c0.79-2.54,1.16-5.19,1.71-7.79,0.83-3.9,1.62-7.81,2.42-11.72Z" transform="translate(-584.85 -167.05)" style="fill:#fff"/><path d="M620.67,245.18l-0.12,0-0.35-.44c-0.09-.14-0.16-0.28-0.26-0.41q-2.7-3.68-5.4-7.35a4.49,4.49,0,0,0-1-1.21,1,1,0,0,0-.28-0.52l-2.14-2.92-5.9-8c-0.11-.17-0.21-0.34-0.33-0.5-1.42-1.93-2.82-3.87-4.26-5.78-0.31-.41-0.26-0.57.16-0.84,2.3-1.49,4.57-3,6.85-4.52,1.39-.9,2.79-1.77,4.15-2.71,0.46-.32.63-0.22,0.9,0.21,3.7,5.67,7.42,11.33,11.12,17,0.29,0.45.46,0.48,0.9,0.19q15.15-10,30.32-19.92c0.17-.11.32-0.24,0.49-0.36,1.15-.74,2.31-1.48,3.45-2.23,1.45-1,2.88-1.92,4.33-2.88s2.65-1.67,3.94-2.56c0.52-.37.71-0.24,1,0.24,2,3.13,4.06,6.23,6.11,9.34a0.91,0.91,0,0,0,.4.49l0,0.12-12.65,8.29c-0.47.31-.93,0.63-1.39,0.95L655,222.58c-1,.68-2.07,1.39-3.1,2.08a1.72,1.72,0,0,0-.22.1l-21.39,14a0.41,0.41,0,0,0-.31.33,1.67,1.67,0,0,0-.39.14L621,244.89A0.61,0.61,0,0,0,620.67,245.18Z" transform="translate(-584.85 -167.05)" style="fill:#343434"/></svg>