<svg id="create_ico" data-name="create_ico" xmlns="http://www.w3.org/2000/svg" viewBox="0 0 98.35 98.35"><title>create_ico</title><circle cx="49.17" cy="49.17" r="49.17" style="fill:#ff5b00"/><path d="M529.61,334.74l0.73-.19,54.55-14.61c0.79-.21.79-0.21,1,0.57,0.68,2.53,1.35,5.07,2,7.6,0.11,0.39.15,0.68-.37,0.74a0.31,0.31,0,0,0-.29.48c0.05,0.14.08,0.3,0.12,0.45l8.67,32.37c0.19,0.73.19,0.73-.53,0.92L541.6,377.5c-1.09.29-1.09,0.29-1.38-.8L531.73,345a2.9,2.9,0,0,1-.12-0.45c-0.06-.6-0.36-0.75-0.9-0.51s-0.57,0-.68-0.41c-0.62-2.39-1.29-4.76-1.9-7.15a35.24,35.24,0,0,0-2-4.83c-0.59-1.41-1.25-2.79-1.88-4.19a0.43,0.43,0,0,1,.28-0.69c3.26-1.43,6.51-2.9,9.77-4.36l9.76-4.35,9-4,9.87-4.41,11-4.93,4.35-1.95c0.22-.1.45-0.24,0.61,0.13q1.69,3.85,3.42,7.69c0.15,0.33.11,0.43-.22,0.58-2.64,1.16-5.27,2.35-7.9,3.53l-8.43,3.77-9.13,4.07-9.11,4.09-9.71,4.33-8.32,3.71Zm37,28.2q9.57-2.56,19.14-5.11c0.45-.12.58-0.25,0.45-0.74q-2.54-9.39-5-18.8a0.5,0.5,0,0,0-.76-0.43q-19.1,5.13-38.22,10.23c-0.47.13-.62,0.26-0.48,0.78q2.54,9.36,5,18.74c0.13,0.51.31,0.58,0.8,0.45Q557.11,365.47,566.65,362.93Zm-9-50.08a0.7,0.7,0,0,0,.09.16l6.19,5.18a0.4,0.4,0,0,0,.47.09l4.05-1.83a1.59,1.59,0,0,0-.52-0.53l-4.42-3.68a2.06,2.06,0,0,0-3.45-.48Zm0.79,8.08c-2.17-1.81-4.28-3.55-6.37-5.31a0.51,0.51,0,0,0-.64,0l-3.56,1.57c-0.34.15-.34,0.26-0.06,0.49q3,2.46,5.94,5a0.55,0.55,0,0,0,.67.1C555.69,322.14,557,321.56,558.39,320.93Zm-10.2,4.56a0.67,0.67,0,0,0-.37-0.43c-1.72-1.45-3.49-2.85-5.16-4.34a1.55,1.55,0,0,0-2.07-.3c-1,.56-2.13,1-3.26,1.49l6.36,5.3a0.47,0.47,0,0,0,.58,0Zm-20.89.9a0.73,0.73,0,0,0,.09.15l6.19,5.18a0.47,0.47,0,0,0,.58.06c1.18-.54,2.35-1.09,3.55-1.59,0.46-.19.4-0.3,0.07-0.58-1.73-1.43-3.49-2.84-5.16-4.33a1.6,1.6,0,0,0-2.16-.33C529.45,325.51,528.36,325.91,527.3,326.39Zm40.32-18,6.34,5.29a0.44,0.44,0,0,0,.52.11l4-1.82a0.66,0.66,0,0,0-.1-0.18l-6.16-5.14a0.4,0.4,0,0,0-.47-0.1Zm-36.53,26.8a0.45,0.45,0,0,0,0,.14l5.34,6.14a0.39,0.39,0,0,0,.46.12l4.26-1.14a0.4,0.4,0,0,0,0-.14l-5.35-6.13a0.39,0.39,0,0,0-.46-0.13ZM552,337.54l-5.48-6.27a0.31,0.31,0,0,0-.35-0.14l-4.43,1.19,5.47,6.28a0.39,0.39,0,0,0,.47.1Zm0.43-8.08c1.57,1.8,3.14,3.47,4.54,5.26,0.77,1,1.51,1.32,2.66.79a10,10,0,0,1,1.62-.45l1.42-.38-5.4-6.21a0.47,0.47,0,0,0-.55-0.17Zm20.94,2.36-5.47-6.27a0.35,0.35,0,0,0-.4-0.13l-4.29,1.15a0.34,0.34,0,0,0,0,.11l5.37,6.18a0.35,0.35,0,0,0,.4.13Zm0.53-8.1a0.45,0.45,0,0,0,0,.15c1.77,2,3.54,4.06,5.3,6.1a0.5,0.5,0,0,0,.62.12l2.87-.77,1.25-.33a0.72,0.72,0,0,0-.05-0.19l-5.31-6.09a0.35,0.35,0,0,0-.4-0.15Z" transform="translate(-511.27 -290.83)" style="fill:#fff"/></svg>