<svg id="idea_ico" data-name="idea_ico" xmlns="http://www.w3.org/2000/svg" viewBox="0 0 98.35 98.35"><title>idea_ico</title><circle cx="49.17" cy="49.17" r="49.17" style="fill:#ff5b00"/><path d="M357.77,178.81a1.38,1.38,0,0,1,.6,1.59c-0.35,2.14-.61,4.3-0.9,6.45a1,1,0,0,1-1.2,1.11c-1,0-1.28-.18-1.4-1-0.33-2.31-.66-4.63-0.89-7a2.72,2.72,0,0,1,.64-1.16h3.15Zm-1,57.31a20.59,20.59,0,0,0,7.08-1.26,2.05,2.05,0,0,0,1.45-1.79,18.53,18.53,0,0,1,2.77-8.41c0.94-1.58,1.94-3.12,2.9-4.68a20.48,20.48,0,0,0,3.41-9.23c0.47-6.09-1.71-11-6.67-14.57-5.11-3.65-10.86-4.36-16.87-2.88A16.39,16.39,0,0,0,339.61,202a16,16,0,0,0,.08,14.89c1.19,2.43,2.72,4.71,4.13,7a19.5,19.5,0,0,1,3.17,8.72,2.52,2.52,0,0,0,1.86,2.41,22.47,22.47,0,0,0,7.25,1.12h0.72Zm1.81-34.4a1,1,0,0,1,1.16,1.27c-0.39,3.75-.81,7.49-1.21,11.24-0.17,1.54-.33,3.08-0.48,4.63a1.14,1.14,0,0,1-1.35,1.27c-0.43,0-.86,0-1.29,0a1,1,0,0,1-1.13-1q-0.73-6.9-1.45-13.8c-0.08-.71-0.18-1.42-0.25-2.13a1.1,1.1,0,0,1,1.27-1.43h2.29C357,201.72,357.81,201.71,358.62,201.72Zm-2.45,27.94a2.68,2.68,0,1,1,2.71-2.67A2.71,2.71,0,0,1,356.17,229.66Zm-9.11,7.45a12.67,12.67,0,0,1,0,1.76,1.17,1.17,0,0,0,1,1.43,24.83,24.83,0,0,0,7.66,1.28h0.77v0.22c-3,1.43-6.16,1.37-9.35,1.13,0,1.34.58,2,2.21,2.43,0.25,2,1.61,3.15,3.39,3.85a9.33,9.33,0,0,0,6.86.05c1.83-.69,3.26-1.8,3.52-3.91,1.5-.42,2.21-1,2.24-2.18,0.05-2,0-4,0-6.08A26.22,26.22,0,0,1,347.05,237.11Zm-22.93-24.88a1,1,0,0,0,1.11.94c2.36-.32,4.72-0.63,7.07-1a1.34,1.34,0,0,0,.87-0.78,1.25,1.25,0,0,0-1.18-1.81c-2.24-.31-4.49-0.6-6.73-0.88a1,1,0,0,0-1.15,1c0,0.43,0,.86,0,1.29S324.09,211.8,324.12,212.23Zm62-3.42c-2,.31-4,0.53-6,0.82-0.73.11-.92,0.45-0.92,1.35a1,1,0,0,0,.95,1.2l7,1a1,1,0,0,0,1.16-1c0-.43,0-0.86,0-1.19C388.33,209,388.38,208.45,386.1,208.8Zm-10.61-15.4q2.71-2,5.4-4.11a0.91,0.91,0,0,0,.14-1.57c-0.52-.56-1.06-1.1-1.61-1.62a0.91,0.91,0,0,0-1.56.12c-1.39,1.79-2.77,3.58-4.11,5.4a1.23,1.23,0,0,0-.13,1.08,5.55,5.55,0,0,0,1.11,1.1A6.09,6.09,0,0,0,375.48,193.4ZM338,228.33a1.22,1.22,0,0,0-1.08.12c-1.83,1.34-3.62,2.72-5.4,4.11a0.93,0.93,0,0,0-.08,1.62q0.74,0.77,1.52,1.51a1,1,0,0,0,1.67-.14q2-2.63,4-5.29a7.3,7.3,0,0,0,.45-0.82A5.58,5.58,0,0,0,338,228.33Zm0.71-36.69c-1.39-1.83-2.77-3.65-4.18-5.46a0.89,0.89,0,0,0-1.52-.09q-0.83.79-1.62,1.62a0.92,0.92,0,0,0,.14,1.57c1.78,1.37,3.56,2.74,5.37,4.07a1.25,1.25,0,0,0,1.09.16,5.51,5.51,0,0,0,1.11-1.1A5.25,5.25,0,0,0,338.69,191.64Zm42.24,41c-1.8-1.41-3.63-2.78-5.44-4.18a1,1,0,0,0-1.55.24c-0.6.62-.67,0.94-0.22,1.55q2,2.71,4.11,5.4a0.92,0.92,0,0,0,1.57.12c0.56-.52,1.1-1.06,1.62-1.62a4.65,4.65,0,0,0,.47-0.77A3.75,3.75,0,0,0,380.93,232.61Z" transform="translate(-306.46 -165.28)" style="fill:#f7f7f7"/></svg>