<svg id="manage_ico" data-name="manage_ico" xmlns="http://www.w3.org/2000/svg" viewBox="0 0 98.35 98.35"><title>management_ico</title><circle cx="49.17" cy="49.17" r="49.17" style="fill:#ff5b00"/><path d="M317.64,103.41V94.33c0.06-.18.13-0.37,0.18-0.55a6.49,6.49,0,0,1,2.75-4,1.33,1.33,0,0,0,.66-1.26,41.86,41.86,0,0,1,1.18-9.57c2.48-9.75,8.32-16.54,17.79-20.1a49.89,49.89,0,0,1,31.31.09,27.05,27.05,0,0,1,16.11,15.6,38.88,38.88,0,0,1,2.62,14.09,1.15,1.15,0,0,0,.57,1.08,6.39,6.39,0,0,1,3,5.36c0.07,2.55.05,5.11,0,7.66a6.65,6.65,0,0,1-6,6.67,40.14,40.14,0,0,1-4.53.07,1.31,1.31,0,0,0-1.49,1c-3.6,8.78-9.6,15.29-18.4,19A18.28,18.28,0,0,1,352,130.71a28.94,28.94,0,0,1-13.09-7,34.41,34.41,0,0,1-9.35-13.59,0.8,0.8,0,0,0-.91-0.63c-1.34,0-2.68,0-4,0a6.87,6.87,0,0,1-5.62-2.7A8,8,0,0,1,317.64,103.41ZM345,78c-0.06.53-.12,0.89-0.14,1.25a16.69,16.69,0,0,1-2.21,7.56,14.85,14.85,0,0,1-10.08,7.67,0.65,0.65,0,0,0-.61.73,32.73,32.73,0,0,0,.87,9.81c0.28,1.1.39,2.33,1.4,3.12a31.48,31.48,0,0,0,3.07,2.32c3.47,2.08,7.35,2.7,11.31,3a0.82,0.82,0,0,0,.61-0.28c2.35-3,8.17-3.2,11-.61a3.64,3.64,0,0,1,0,5.66,7.72,7.72,0,0,1-6.25,1.74,6.56,6.56,0,0,1-4.88-2.64,1,1,0,0,0-.7-0.28,35.72,35.72,0,0,1-9.58-1.92l-1.56-.62a2,2,0,0,0,.13.3A29.84,29.84,0,0,0,349,124.71a14.22,14.22,0,0,0,12.08.55,29.36,29.36,0,0,0,16.47-16.94,33,33,0,0,0,1.89-14,3.51,3.51,0,0,0-1.86-3.13,27.42,27.42,0,0,0-8.65-3.43c-1.56-.36-3.15-0.58-4.94-0.9a10.36,10.36,0,0,1,2,3.95,25.69,25.69,0,0,0-2.35-1.14c-1.86-.68-3.73-1.31-5.62-1.92a21.92,21.92,0,0,1-10.41-6.45C346.78,80.33,346,79.24,345,78ZM327.86,88.49a37.67,37.67,0,0,1,2.87-10,23.35,23.35,0,0,1,14.27-13,35,35,0,0,1,16.46-1.19c10,1.51,16.76,7,20.18,16.56,0.88,2.46,1.43,5,2.15,7.61h2.42c0-.61-0.08-1.15-0.11-1.69a32.58,32.58,0,0,0-2.85-12.14A22.45,22.45,0,0,0,371,63.08a34.45,34.45,0,0,0-10.37-2.43c-6.87-.59-13.62-0.2-20.1,2.41a22.42,22.42,0,0,0-10.11,7.79,27.52,27.52,0,0,0-4.74,12.67c-0.22,1.64-.32,3.29-0.49,5h2.66Zm21.89,9a3.91,3.91,0,1,0-4,3.84A3.93,3.93,0,0,0,349.75,97.53Zm19.79,0a3.91,3.91,0,1,0-4,3.82A3.93,3.93,0,0,0,369.54,97.54Z" transform="translate(-306.46 -44.85)" style="fill:#fff"/></svg>