<svg id="order_ico" data-name="order_ico" xmlns="http://www.w3.org/2000/svg" viewBox="0 0 98.35 98.35"><title>order_ico</title><circle cx="49.17" cy="49.17" r="49.17" style="fill:#ff5b00"/><path d="M202.85,406.12c-16.79-4.65-28.23-17.77-30.37-33.73-0.27-2-.27-2,1.79-2.17,1.75-.13,3.51-0.26,5.26-0.43,0.56-.06.76,0,0.83,0.66,1.29,10.65,6.48,18.91,15.73,24.32s18.94,5.84,28.84,1.78a0.65,0.65,0,0,1,1,.43c0.89,2,1.8,4,2.75,6,0.26,0.53.12,0.69-.37,0.9A39.46,39.46,0,0,1,202.85,406.12Z" transform="translate(-162.32 -317.73)" style="fill:#343434"/><path d="M216.52,327.26c-0.46-.06-0.62,0-0.66.56-0.17,2.26-.39,4.52-0.63,6.77-0.05.49,0.06,0.63,0.56,0.69a31.41,31.41,0,0,1,24,15.48,30.94,30.94,0,0,1,4.1,21.39,0.59,0.59,0,0,0,.59.83c2.16,0.37,4.31.77,6.46,1.2a0.61,0.61,0,0,0,.88-0.62,37,37,0,0,0,0-12.58c-3.12-17-13.31-27.64-29.56-32.76C220.33,327.82,218.43,327.5,216.52,327.26Z" transform="translate(-162.32 -317.73)" style="fill:#343434"/><path d="M223.51,377.44a1.63,1.63,0,0,0,1.57-1,1.92,1.92,0,0,0-.23-2.15c-4.12-4.7-8.2-9.43-12.3-14.16-0.69-.8-0.93-0.86-1.81-0.26-1.13.76-2.2,1.6-3.34,2.35a7.65,7.65,0,0,1-5.32,1.32,4.94,4.94,0,0,1-4.13-2.65,1.63,1.63,0,0,1,.34-2.17,29.26,29.26,0,0,1,3.9-3.32,1.69,1.69,0,0,0,.68-0.64,4.6,4.6,0,0,0-1.64.08,6.69,6.69,0,0,0-2.74,1.59,2.67,2.67,0,0,1-2.3,1.06c-0.46-.08-0.54.06-0.53,0.48,0,1.36,0,2.73,0,4.09,0,3.34,0,6.68,0,10,0,0.27-.2.68,0.34,0.73a5.44,5.44,0,0,1,2.89,1.44c1.33,1.07,2.65,2.17,4,3.22a40.34,40.34,0,0,0,5.81,4.11,2.11,2.11,0,0,0,3.27-1.75c3.22,1.92,4.66.7,4.74-1.16a5.33,5.33,0,0,0,2.51,1A1.55,1.55,0,0,0,221,378c0-.31,0-0.63,0-1A7.68,7.68,0,0,0,223.51,377.44Z" transform="translate(-162.32 -317.73)" style="fill:#343434"/><path d="M194.22,354.94a1,1,0,0,0-1.18-1.19h-4.49a0.93,0.93,0,0,0-1.08,1.07q0,11.9,0,23.8a0.9,0.9,0,0,0,1.1,1.1H193c1,0,1.23-.22,1.23-1.21q0-5.85,0-11.7T194.22,354.94Z" transform="translate(-162.32 -317.73)" style="fill:#343434"/><path d="M173.54,356.45c4.31-13.72,13.12-23.08,26.88-27.63a38.24,38.24,0,0,1,7.67-1.58c0.67-.08.92,0,1,0.77,0.12,2.13.3,4.26,0.52,6.38a0.64,0.64,0,0,1-.71.87,32,32,0,0,0-28.42,28c-0.08.65-.22,1-1,0.88-2.15-.25-4.3-0.42-6.45-0.61-0.48,0-.66-0.16-0.6-0.73A53.33,53.33,0,0,1,173.54,356.45Z" transform="translate(-162.32 -317.73)" style="fill:#fff"/><path d="M228.69,359.65a4.53,4.53,0,0,0-.1-2.12c-0.36-.58-1.35-0.44-2.06-0.63-2.55-.68-5.2-1.19-7.42-2.66a12.51,12.51,0,0,0-6.46-2,8.38,8.38,0,0,0-6.08,1.63c-2.14,1.72-4.37,3.33-6.53,5-1.35,1.07-.81,1.8.23,2.47a5,5,0,0,0,5,.28,20,20,0,0,0,3.6-2.22,14.11,14.11,0,0,1,2.07-1.36,1.28,1.28,0,0,1,1.75.36c4.25,4.9,8.55,9.76,12.78,14.68,0.74,0.87,1.36,1.53,2.51.75a0.25,0.25,0,0,1,.15,0c0.52,0,.59-0.24.58-0.68,0-2.51,0-5,0-7.53Q228.69,362.62,228.69,359.65Z" transform="translate(-162.32 -317.73)" style="fill:#fafbfc"/><path d="M249.08,380.74c-2.05-.75-4.12-1.48-6.16-2.27a0.55,0.55,0,0,0-.88.38A31.47,31.47,0,0,1,231,393.11c-0.45.33-.41,0.54-0.13,0.93,1.28,1.81,2.55,3.62,3.77,5.47,0.36,0.54.59,0.48,1,.14a42.41,42.41,0,0,0,5.59-4.89,40.29,40.29,0,0,0,8.41-13.28C250,381,249.5,380.89,249.08,380.74Z" transform="translate(-162.32 -317.73)" style="fill:#fff"/><path d="M236.87,355a1,1,0,0,0-1.18-1.2h-4.41a0.94,0.94,0,0,0-1.15,1.14q0,11.85,0,23.71a0.9,0.9,0,0,0,1.09,1.1h4.33c1.11,0,1.32-.21,1.32-1.29q0-5.85,0-11.69T236.87,355Z" transform="translate(-162.32 -317.73)" style="fill:#fafbfc"/></svg>