<svg id="ruble_ico" data-name="ruble_ico" xmlns="http://www.w3.org/2000/svg" viewBox="0 0 98.35 98.35"><title>ruble_ico</title><circle cx="49.17" cy="49.17" r="49.17" style="fill:#ff5b00"/><path d="M372.38,364.86v4.58H400v7.37H372.37v16.54H362.21V376.83h-6.35v-7.38h6.33v-4.58h-6.56l0.2-7.56h6.36v-38.1h0.44c7,0,14,0,21,0a23.75,23.75,0,0,1,9.16,2.11,20.86,20.86,0,0,1,9.74,8.05,22.7,22.7,0,0,1,3.13,8.5,23.42,23.42,0,0,1-2,14.41,21.13,21.13,0,0,1-13.43,11.31,27.1,27.1,0,0,1-8.36,1.27c-3,0-6,0-8.94,0h-0.48Zm0-7.58h10.44a4.06,4.06,0,0,0,.52,0,12.89,12.89,0,0,0,7.2-3.38,15.19,15.19,0,0,0,4.4-7.64,16,16,0,0,0,.66-3.82,18.43,18.43,0,0,0-1.15-6.35,12.63,12.63,0,0,0-11.84-8.31c-3.29,0-6.58-.11-9.87-0.17h-0.35v29.69Z" transform="translate(-329.5 -307.79)" style="fill:#f8f8f8"/></svg>