<svg id="4cf25c52-77b7-4314-aed3-a6b856e13820" data-name="Слой 1" xmlns="http://www.w3.org/2000/svg" viewBox="0 0 64 63.95"><title>Skype</title><path d="M62.34,32.22a19.47,19.47,0,0,1-.27,4,5,5,0,0,0,.46,3.26,17.56,17.56,0,0,1-16,24.51,16.88,16.88,0,0,1-7.56-1.63,3.12,3.12,0,0,0-2-.24A30.2,30.2,0,0,1,2.14,36.25a31.24,31.24,0,0,1,.13-9A2.3,2.3,0,0,0,2,25.68,17.39,17.39,0,0,1,5.28,5.11,17.38,17.38,0,0,1,25.65,2a2.89,2.89,0,0,0,1.95.27,30.2,30.2,0,0,1,34.49,26A34.55,34.55,0,0,1,62.34,32.22Zm-29.56,23a24.13,24.13,0,0,0,4.65-.34c4.15-.68,7.81-2.31,10.42-5.73,4.18-5.47,4.33-15.7-5.56-19.52-3.89-1.5-8-2.31-12-3.51a9.87,9.87,0,0,1-3.57-1.68,3.31,3.31,0,0,1,0-5.33,8.47,8.47,0,0,1,12.45,2.15,21.9,21.9,0,0,0,2.06,3.23,2.9,2.9,0,0,0,2.12,1.09,4.59,4.59,0,0,0,5.06-5.74,10,10,0,0,0-5.08-7C36.91,9,30.13,9.26,23.34,11.93a10.93,10.93,0,0,0-6.08,5.84c-2.77,6.12-.17,12.55,6.18,15.47a57.48,57.48,0,0,0,9.81,3,16.67,16.67,0,0,1,5.36,2,4.43,4.43,0,0,1,.69,7.15c-2.5,2.46-5.6,2.66-8.83,2.15a6.55,6.55,0,0,1-5-3.79c-.63-1.27-1.17-2.59-1.89-3.8A4.1,4.1,0,0,0,18.35,38a4.27,4.27,0,0,0-2.87,4.75,12.8,12.8,0,0,0,4.75,8.52C23.83,54.43,28.22,55.11,32.77,55.2Z" transform="translate(0)" fill="#02afef"/><path d="M32.77,55.2c-4.55-.09-8.94-.76-12.55-3.89a12.8,12.8,0,0,1-4.75-8.52A4.27,4.27,0,0,1,18.35,38,4.1,4.1,0,0,1,23.52,40c.72,1.21,1.26,2.53,1.89,3.8a6.55,6.55,0,0,0,5,3.79c3.22.5,6.32.3,8.83-2.15a4.43,4.43,0,0,0-.69-7.15,16.67,16.67,0,0,0-5.36-2,57.48,57.48,0,0,1-9.81-3c-6.35-2.92-8.95-9.35-6.18-15.47a10.93,10.93,0,0,1,6.08-5.84c6.79-2.68,13.56-2.89,20.05.89a10,10,0,0,1,5.08,7,4.59,4.59,0,0,1-5.06,5.74,2.9,2.9,0,0,1-2.12-1.09,21.9,21.9,0,0,1-2.06-3.23,8.47,8.47,0,0,0-12.45-2.15,3.31,3.31,0,0,0,0,5.33,9.87,9.87,0,0,0,3.57,1.68c4,1.2,8.06,2,12,3.51,9.89,3.82,9.73,14,5.56,19.52-2.61,3.42-6.27,5.05-10.42,5.73A24.13,24.13,0,0,1,32.77,55.2Z" transform="translate(0)" fill="#fcfdfe"/></svg>