<svg id="ba75f567-5c6c-4791-9517-e2102c3746aa" data-name="Слой 1" xmlns="http://www.w3.org/2000/svg" viewBox="0 0 61.84 61.91"><title>teegram</title><path d="M1.62,37.8a15.15,15.15,0,0,1-.39-2.21A30.64,30.64,0,0,1,1,30.68a30,30,0,0,1,2-10.13A30.72,30.72,0,0,1,15.57,5.42,30.88,30.88,0,0,1,33.26.77,30.32,30.32,0,0,1,51.14,7.48,30.5,30.5,0,0,1,62.28,25.86a29.3,29.3,0,0,1,.44,8.4,22.25,22.25,0,0,1-.41,3,1.16,1.16,0,0,1-.62.1h-17a.93.93,0,0,1-.79-.42A1.15,1.15,0,0,1,44,36s.16,0,.17-.07c0-.36.2-.7.06-1.07a1.23,1.23,0,0,1,.05-.47q1-4.77,1.9-9.54c.36-1.84.71-3.68,1-5.53,0-.21.05-.42.08-.63A1,1,0,0,0,46,17.55a6.21,6.21,0,0,0-1.24.32c-3,1.09-6,2.18-9,3.3q-3.43,1.29-6.86,2.61c-3.78,1.46-7.52,3-11.25,4.59q-2.11.9-4.2,1.82a1.73,1.73,0,0,0-.79.6A1.35,1.35,0,0,0,12.59,32c.16.58.66.77,1.13,1,.7.27,1.41.51,2.13.74,1.66.55,3.31,1.14,5,1.68a1,1,0,0,1,.8.85,4.73,4.73,0,0,1,.15.72c0,.29-.1.41-.39.44a4.35,4.35,0,0,1-.47,0H2.86C2.39,37.35,1.88,37.22,1.62,37.8Z" transform="translate(-1 -0.73)" fill="#00a6de"/><path d="M1.62,37.8c0-.16.16-.26.15-.44s.09-.11.17-.11H21.19c.53,0,.54-.06.47-.59a1.52,1.52,0,0,0-1.24-1.38c-2.26-.71-4.5-1.5-6.74-2.27a2.09,2.09,0,0,1-1.14-.84c-.05-.08-.1-.15,0-.24a.31.31,0,0,1,.23.12,2.85,2.85,0,0,0,1.32.75c2.41.73,4.78,1.56,7.18,2.34a.6.6,0,0,1,.27.14,10.35,10.35,0,0,1,.5,1.5c.83,2.66,1.65,5.33,2.47,8a2.9,2.9,0,0,0,.59,1.08.57.57,0,0,0,.73.12,1.33,1.33,0,0,0,.37-.23c.69-.65,1.4-1.29,2.08-2s1.67-1.53,2.47-2.33a.37.37,0,0,1,.35-.15c.85.58,1.65,1.23,2.47,1.86,1.73,1.33,3.47,2.66,5.21,4a1.87,1.87,0,0,0,3-1.14c.65-2.91,1.31-5.82,1.91-8.74,0-.13,0-.3.19-.37s.14-.11.17,0c.08.29.28.32.54.32H61.71a2,2,0,0,1,.6,0,30.16,30.16,0,0,1-1.34,5,30.71,30.71,0,0,1-3.67,7.09A26.43,26.43,0,0,1,55.2,52a26.44,26.44,0,0,1-1.82,2c-.87.78-1.74,1.56-2.67,2.27a31.32,31.32,0,0,1-5.18,3.26,31,31,0,0,1-16.82,3,30.5,30.5,0,0,1-12.39-4.06,31.5,31.5,0,0,1-4.65-3.33A30.82,30.82,0,0,1,5.9,48.44a30.44,30.44,0,0,1-4.08-9.57A4.92,4.92,0,0,1,1.62,37.8Z" transform="translate(-1 -0.73)" fill="#0098d7"/><path d="M21.47,35.31c-1.89-.63-3.78-1.26-5.67-1.87l-1.75-.55a3.07,3.07,0,0,1-1.53-1,1.28,1.28,0,0,1,.82-1.78l5-2.14C27.09,24.25,36,20.93,45,17.7a5.86,5.86,0,0,1,.94-.25,1.11,1.11,0,0,1,1.37,1.33c-.13.89-.26,1.77-.42,2.65-.82,4.47-1.74,8.92-2.64,13.38a1,1,0,0,0,0,.13A2,2,0,0,1,44,36a3.57,3.57,0,0,0-.19.88c-.27,1.25-.54,2.49-.82,3.74-.41,1.85-.81,3.7-1.23,5.54a2,2,0,0,1-3.13,1l-7.63-5.85a2.6,2.6,0,0,1-.86-.55c-1.25-1-2.53-1.92-3.78-2.9a1.5,1.5,0,0,1-.25-.23c-.14-.18,0-.31.1-.44.38-.41.82-.77,1.23-1.14.79-.7,1.56-1.41,2.35-2.11,1-.93,2.09-1.87,3.13-2.81l2.32-2.1,3-2.67c.91-.81,1.81-1.64,2.73-2.45a.64.64,0,0,0,.16-.21.34.34,0,0,0,0-.41.33.33,0,0,0-.4-.07,3.69,3.69,0,0,0-.64.36c-3,1.91-6,3.8-8.94,5.7l-9.11,5.81C21.88,35.25,21.71,35.42,21.47,35.31Z" transform="translate(-1 -0.73)" fill="#fdfdfd"/><path d="M44,36,44.26,35c.07,0,.15,0,.12.07-.09.32-.07.65-.14,1C44.22,36.11,44.16,36.29,44,36Z" transform="translate(-1 -0.73)" fill="#0098d7"/><path d="M21.47,35.31a1.13,1.13,0,0,0,.55-.23l5.82-3.72,9.68-6.16,2.91-1.86c.4-.25.67-.25.83,0s0,.52-.33.81c-.53.45-1,.92-1.55,1.39L35.54,29l-2.31,2.1-3.08,2.75-2.21,2-1.63,1.5c-.1.09-.21.18-.1.34-.25,1.85-.45,3.7-.67,5.54-.1.8-.21,1.6-.31,2.4,0,.13,0,.31-.17.35a2.41,2.41,0,0,1-.65-1.15l-2.75-8.91Z" transform="translate(-1 -0.73)" fill="#c1dfed"/><path d="M25.05,45.94c.16-.24.09-.52.13-.77.16-1.05.28-2.11.41-3.17s.23-2.1.35-3.15c0-.34.09-.68.14-1a.22.22,0,0,1,.13-.18l4.84,3.71c-.12,0-.18.09-.25.16l-4.52,4.23a1.28,1.28,0,0,1-.76.39A.52.52,0,0,1,25.05,45.94Z" transform="translate(-1 -0.73)" fill="#99c5df"/></svg>