<svg id="da42a142-5fb9-4adf-98d6-6c9f37b4a6ac" data-name="Слой 1" xmlns="http://www.w3.org/2000/svg" viewBox="0 0 58.12 63.86"><title>viber</title><path d="M16.52,57.14c0-1.89,0-3.79,0-5.68a.67.67,0,0,0-.59-.78,15.66,15.66,0,0,1-6.06-3.06A17,17,0,0,1,4.66,39.8a30.46,30.46,0,0,1-1.42-7.91A77.71,77.71,0,0,1,3.53,19.5,26.05,26.05,0,0,1,6.1,10.37,15.22,15.22,0,0,1,11.82,4.3c3.37-2.11,7.15-3,11-3.56a67.37,67.37,0,0,1,16-.26A41,41,0,0,1,49.67,2.8,14.71,14.71,0,0,1,59,11.67a35.25,35.25,0,0,1,2,9,62.39,62.39,0,0,1-.45,14.89,18.59,18.59,0,0,1-5,10.89,16.28,16.28,0,0,1-7.79,4.18A64.73,64.73,0,0,1,28,52.57c-.26,0-.47,0-.63.22-1.22,1.72-2.73,3.21-4.08,4.82s-2.91,3.49-4.5,5.12c-.28.29-.56.58-.86.86s-.67.55-1.1.35-.43-.6-.43-1c0-1.94,0-3.88,0-5.82Z" transform="translate(-3.12 -0.14)" fill="#fff"/><path d="M17.86,53.5c0-1.7,0-3.39,0-5.09a.6.6,0,0,0-.53-.7A14.07,14.07,0,0,1,11.9,45a15.24,15.24,0,0,1-4.7-7,27.25,27.25,0,0,1-1.28-7.09,69.49,69.49,0,0,1,.26-11.1A23.31,23.31,0,0,1,8.5,11.59a13.65,13.65,0,0,1,5.13-5.44A25.63,25.63,0,0,1,23.52,3a60.62,60.62,0,0,1,14.36-.23A36.88,36.88,0,0,1,47.63,4.8a13.2,13.2,0,0,1,8.34,8,31.53,31.53,0,0,1,1.82,8.06,55.79,55.79,0,0,1-.4,13.34,16.64,16.64,0,0,1-4.45,9.76,14.63,14.63,0,0,1-7,3.75A58.24,58.24,0,0,1,28.2,49.4c-.24,0-.43,0-.57.2-1.09,1.54-2.45,2.87-3.66,4.32s-2.61,3.13-4,4.59c-.25.26-.5.52-.77.77s-.6.49-1,.32-.39-.53-.39-.87c0-1.74,0-3.48,0-5.22Z" transform="translate(-3.12 -0.14)" fill="#87509e"/><path d="M14.85,16.86a4.37,4.37,0,0,1,1.41-3A11.46,11.46,0,0,1,20,11.2c.62-.27,1.44,0,2.27.84s1.67,2,2.49,3a18.73,18.73,0,0,1,1.74,2.79,2.49,2.49,0,0,1-.75,3.36,5.89,5.89,0,0,0-1.57,1.39,1.93,1.93,0,0,0-.26,1.79A16,16,0,0,0,31,33a14.29,14.29,0,0,0,2.93,1.3,2.19,2.19,0,0,0,2.85-1.1,3,3,0,0,1,3-1.77,3.56,3.56,0,0,1,1.35.45A38.7,38.7,0,0,1,46.85,36a2.21,2.21,0,0,1,.35,3,10.06,10.06,0,0,1-3.1,3.36,4.06,4.06,0,0,1-3.78.5A42.2,42.2,0,0,1,32,39a37.25,37.25,0,0,1-6.39-4.66,34.87,34.87,0,0,1-5.22-6.09A49.52,49.52,0,0,1,15.05,18.1,3.47,3.47,0,0,1,14.85,16.86Z" transform="translate(-3.12 -0.14)" fill="#fdfdfd"/><path d="M32.44,9.34a16.35,16.35,0,0,1,6.72,1.54,16.6,16.6,0,0,1,6.6,5.47,17.17,17.17,0,0,1,2.83,8.32q.07.91.11,1.82a.82.82,0,0,1-.79,1c-.52.05-.87-.32-.88-.94a17.33,17.33,0,0,0-1.24-6.63c-2-4.57-5.53-7.32-10.52-8.5a19.54,19.54,0,0,0-3.47-.48c-.64,0-1-.32-.93-.81s.44-.76,1-.74Z" transform="translate(-3.12 -0.14)" fill="#fdfdfd"/><path d="M44.37,24.36c0,1.08-.24,1.48-.86,1.47s-.81-.36-.82-1.32A9,9,0,0,0,38.81,17a10.85,10.85,0,0,0-5.45-1.84c-.74-.09-1.11-.39-1-.93s.49-.72,1.21-.65a13.68,13.68,0,0,1,3.94.86,10.43,10.43,0,0,1,6.79,8.74c0,.23.06.46.08.69S44.37,24.27,44.37,24.36Z" transform="translate(-3.12 -0.14)" fill="#fdfdfd"/><path d="M40.11,23.28c.05.41.07.81-.36,1.07a.82.82,0,0,1-1.26-.61c-.07-.43-.11-.87-.2-1.3a3.5,3.5,0,0,0-3.38-2.9c-.22,0-.44,0-.65-.07a.74.74,0,0,1-.69-.85.75.75,0,0,1,.85-.7c2.56.1,4.82,1.23,5.5,4.13C40,22.45,40,22.87,40.11,23.28Z" transform="translate(-3.12 -0.14)" fill="#fdfdfd"/></svg>