<svg id="1d84a57b-f363-42f3-b59c-a0246e333ca9" data-name="Слой 1" xmlns="http://www.w3.org/2000/svg" viewBox="0 0 63.24 63.23"><title>whatsapp</title><path d="M.39,63.49a2.14,2.14,0,0,1,.25-1q2.48-7.34,5-14.66a1.62,1.62,0,0,0-.14-1.47A30.79,30.79,0,0,1,25.58,1.05,30.87,30.87,0,0,1,39.9,61.1,31.16,31.16,0,0,1,18,58.43a1.44,1.44,0,0,0-1.2-.07q-7.83,2.5-15.66,5A1.42,1.42,0,0,1,.39,63.49Z" transform="translate(-0.39 -0.28)" fill="#fdfdfd"/><path d="M58.67,30.93A26.17,26.17,0,0,1,18.72,53.15,1.34,1.34,0,0,0,17.48,53c-2.78.91-5.57,1.79-8.36,2.65-.28.09-.63.4-.87.13s.09-.53.18-.8q1.35-4,2.72-8A1.14,1.14,0,0,0,11,45.82,25.85,25.85,0,0,1,27.33,5.71,26.09,26.09,0,0,1,58.13,25.93,27.27,27.27,0,0,1,58.67,30.93Z" transform="translate(-0.39 -0.28)" fill="#00bb4a"/><path d="M23,17.09c1.36-.37,2,.52,2.44,1.72.68,1.74,1.42,3.46,2.16,5.18a1.68,1.68,0,0,1,0,1.51,10,10,0,0,1-1.87,2.44,1.2,1.2,0,0,0-.2,1.63,20.77,20.77,0,0,0,10.53,9,1.18,1.18,0,0,0,1.49-.36c.75-.92,1.54-1.81,2.24-2.77a1.28,1.28,0,0,1,1.7-.55c2.16.91,4.25,2,6.36,3,.52.26.55.72.54,1.21-.05,3.41-1.89,5.28-5.54,6.34a9.08,9.08,0,0,1-5-.34c-7.25-2-12.71-6.29-16.91-12.4a18.65,18.65,0,0,1-3.19-6.22,8.53,8.53,0,0,1,2.57-8.65A3.19,3.19,0,0,1,23,17.09Z" transform="translate(-0.39 -0.28)" fill="#fdfdfd"/></svg>